# xmcd CD database file
#
# Track frame offsets:
#	150
#	18230
#	40657
#	49563
#	72899
#	105429
#	135101
#	153463
#	186387
#	206943
#	229674
#	255911
#
# Disc length: 3770 seconds
#
# Revision: 0
# Processed by: cddbd v1.5.2PL0 Copyright (c) Steve Scherf et al.
# Submitted via: CDex 1.51
#
DISCID=920eb80c
DTITLE=LA FISARMONICA CRIANTE - Vol-1
DYEAR=2007
DGENRE=Jazz
TTITLE0=La danse rituelle du feu
TTITLE1=Papillon noir
TTITLE2=Gnossienne 2
TTITLE3=Suite troileana 2
TTITLE4=Hora paysan
TTITLE5=Children song 3
TTITLE6=Gnossienne 5
TTITLE7=Charlama
TTITLE8=Vuelvo al sur
TTITLE9=Primavera porteno
TTITLE10=Folklorique 1
TTITLE11=Gnossienne 4
EXTD=YEAR: 2007
EXTT0=
EXTT1=
EXTT2=
EXTT3=
EXTT4=
EXTT5=
EXTT6=
EXTT7=
EXTT8=
EXTT9=
EXTT10=
EXTT11=
PLAYORDER=
